<svg width="153" height="152" viewBox="0 0 153 152" fill="none" xmlns="http://www.w3.org/2000/svg">
<g filter="url(#filter0_dd_3602_7)">
<circle cx="76.5" cy="71.5" r="40.5" fill="#1D0800"/>
<circle cx="76.5" cy="71.5" r="40.5" stroke="url(#paint0_linear_3602_7)" stroke-width="3"/>
</g>
<path d="M88.8214 73.9562C89.2855 73.6882 89.5714 73.1931 89.5714 72.6572C89.5714 72.1213 89.2855 71.6261 88.8214 71.3581L71.4643 61.337C71.0002 61.069 70.4284 61.069 69.9643 61.337C69.5002 61.6049 69.2143 62.1001 69.2143 62.636V82.6783C69.2143 83.2142 69.5002 83.7094 69.9643 83.9773C70.4284 84.2453 71.0002 84.2453 71.4643 83.9773L88.8214 73.9562Z" stroke="url(#paint1_linear_3602_7)" stroke-width="3" stroke-linejoin="round"/>
<defs>
<filter id="filter0_dd_3602_7" x="0.942856" y="0.571427" width="151.114" height="151.114" filterUnits="userSpaceOnUse" color-interpolation-filters="sRGB">
<feFlood flood-opacity="0" result="BackgroundImageFix"/>
<feColorMatrix in="SourceAlpha" type="matrix" values="0 0 0 0 0 0 0 0 0 0 0 0 0 0 0 0 0 0 127 0" result="hardAlpha"/>
<feOffset dy="4.62857"/>
<feGaussianBlur stdDeviation="16.7786"/>
<feComposite in2="hardAlpha" operator="out"/>
<feColorMatrix type="matrix" values="0 0 0 0 0 0 0 0 0 0 0 0 0 0 0 0 0 0 1 0"/>
<feBlend mode="normal" in2="BackgroundImageFix" result="effect1_dropShadow_3602_7"/>
<feColorMatrix in="SourceAlpha" type="matrix" values="0 0 0 0 0 0 0 0 0 0 0 0 0 0 0 0 0 0 127 0" result="hardAlpha"/>
<feOffset dy="4"/>
<feGaussianBlur stdDeviation="12"/>
<feComposite in2="hardAlpha" operator="out"/>
<feColorMatrix type="matrix" values="0 0 0 0 1 0 0 0 0 0.24 0 0 0 0 0 0 0 0 0.67 0"/>
<feBlend mode="normal" in2="effect1_dropShadow_3602_7" result="effect2_dropShadow_3602_7"/>
<feBlend mode="normal" in="SourceGraphic" in2="effect2_dropShadow_3602_7" result="shape"/>
</filter>
<linearGradient id="paint0_linear_3602_7" x1="105.752" y1="31" x2="37.9426" y2="40.9077" gradientUnits="userSpaceOnUse">
<stop stop-color="#FF5924"/>
<stop offset="1" stop-color="#FFA229"/>
</linearGradient>
<linearGradient id="paint1_linear_3602_7" x1="88.0714" y1="81.0149" x2="85.2406" y2="61.6407" gradientUnits="userSpaceOnUse">
<stop stop-color="#FF6432"/>
<stop offset="1" stop-color="#FFA228"/>
</linearGradient>
</defs>
</svg>
